<svg width="20" height="22" viewBox="0 0 20 22" fill="none" xmlns="http://www.w3.org/2000/svg">
<path d="M5.75 4.5C5.34 4.5 5 4.16 5 3.75V0.75C5 0.34 5.34 0 5.75 0C6.16 0 6.5 0.34 6.5 0.75V3.75C6.5 4.16 6.16 4.5 5.75 4.5ZM13.75 4.5C13.34 4.5 13 4.16 13 3.75V0.75C13 0.34 13.34 0 13.75 0C14.16 0 14.5 0.34 14.5 0.75V3.75C14.5 4.16 14.16 4.5 13.75 4.5ZM6.25 13.248C6.12 13.248 5.99 13.218 5.87 13.168C5.74 13.118 5.64 13.048 5.54 12.958C5.36 12.768 5.25 12.518 5.25 12.248C5.25 12.118 5.28 11.988 5.33 11.868C5.38 11.748 5.45 11.638 5.54 11.538C5.64 11.448 5.74 11.378 5.87 11.328C6.23 11.178 6.68 11.258 6.96 11.538C7.14 11.728 7.25 11.988 7.25 12.248C7.25 12.308 7.24 12.378 7.23 12.448C7.22 12.508 7.2 12.568 7.17 12.628C7.15 12.688 7.12 12.748 7.08 12.808C7.05 12.858 7 12.908 6.96 12.958C6.77 13.138 6.51 13.248 6.25 13.248ZM9.75 13.249C9.62 13.249 9.49 13.219 9.37 13.169C9.24 13.119 9.14 13.049 9.04 12.959C8.86 12.769 8.75 12.519 8.75 12.249C8.75 12.119 8.78 11.989 8.83 11.869C8.88 11.749 8.95 11.639 9.04 11.539C9.14 11.449 9.24 11.379 9.37 11.329C9.73 11.169 10.18 11.259 10.46 11.539C10.64 11.729 10.75 11.989 10.75 12.249C10.75 12.309 10.74 12.379 10.73 12.449C10.72 12.509 10.7 12.569 10.67 12.629C10.65 12.689 10.62 12.749 10.58 12.809C10.55 12.859 10.5 12.909 10.46 12.959C10.27 13.139 10.01 13.249 9.75 13.249ZM13.25 13.249C13.12 13.249 12.99 13.219 12.87 13.169C12.74 13.119 12.64 13.049 12.54 12.959L12.42 12.809C12.3821 12.7533 12.3519 12.6927 12.33 12.629C12.3011 12.5723 12.2809 12.5117 12.27 12.449C12.26 12.379 12.25 12.309 12.25 12.249C12.25 11.989 12.36 11.729 12.54 11.539C12.64 11.449 12.74 11.379 12.87 11.329C13.24 11.169 13.68 11.259 13.96 11.539C14.14 11.729 14.25 11.989 14.25 12.249C14.25 12.309 14.24 12.379 14.23 12.449C14.22 12.509 14.2 12.569 14.17 12.629C14.15 12.689 14.12 12.749 14.08 12.809C14.05 12.859 14 12.909 13.96 12.959C13.77 13.139 13.51 13.249 13.25 13.249ZM6.25 16.75C6.12 16.75 5.99 16.72 5.87 16.67C5.75 16.62 5.64 16.55 5.54 16.46C5.36 16.27 5.25 16.01 5.25 15.75C5.25 15.62 5.28 15.49 5.33 15.37C5.38 15.24 5.45 15.13 5.54 15.04C5.91 14.67 6.59 14.67 6.96 15.04C7.14 15.23 7.25 15.49 7.25 15.75C7.25 16.01 7.14 16.27 6.96 16.46C6.77 16.64 6.51 16.75 6.25 16.75ZM9.75 16.75C9.49 16.75 9.23 16.64 9.04 16.46C8.86 16.27 8.75 16.01 8.75 15.75C8.75 15.62 8.78 15.49 8.83 15.37C8.88 15.24 8.95 15.13 9.04 15.04C9.41 14.67 10.09 14.67 10.46 15.04C10.55 15.13 10.62 15.24 10.67 15.37C10.72 15.49 10.75 15.62 10.75 15.75C10.75 16.01 10.64 16.27 10.46 16.46C10.27 16.64 10.01 16.75 9.75 16.75ZM13.25 16.75C12.99 16.75 12.73 16.64 12.54 16.46C12.4475 16.3661 12.3759 16.2536 12.33 16.13C12.2786 16.0098 12.2515 15.8807 12.25 15.75C12.25 15.62 12.28 15.49 12.33 15.37C12.38 15.24 12.45 15.13 12.54 15.04C12.77 14.81 13.12 14.7 13.44 14.77C13.51 14.78 13.57 14.8 13.63 14.83C13.69 14.85 13.75 14.88 13.81 14.92C13.86 14.95 13.91 15 13.96 15.04C14.14 15.23 14.25 15.49 14.25 15.75C14.25 16.01 14.14 16.27 13.96 16.46C13.77 16.64 13.51 16.75 13.25 16.75ZM18.25 8.59H1.25C0.84 8.59 0.5 8.25 0.5 7.84C0.5 7.43 0.84 7.09 1.25 7.09H18.25C18.66 7.09 19 7.43 19 7.84C19 8.25 18.66 8.59 18.25 8.59Z" fill="#4485FD"/>
<path d="M13.75 21.5H5.75C2.1 21.5 0 19.4 0 15.75V7.25C0 3.6 2.1 1.5 5.75 1.5H13.75C17.4 1.5 19.5 3.6 19.5 7.25V15.75C19.5 19.4 17.4 21.5 13.75 21.5ZM5.75 3C2.89 3 1.5 4.39 1.5 7.25V15.75C1.5 18.61 2.89 20 5.75 20H13.75C16.61 20 18 18.61 18 15.75V7.25C18 4.39 16.61 3 13.75 3H5.75Z" fill="#4485FD"/>
</svg>
