<svg width="22" height="23" viewBox="0 0 22 23" fill="none" xmlns="http://www.w3.org/2000/svg">
<path d="M14.1987 22.25H8.19873C2.76873 22.25 0.44873 19.93 0.44873 14.5V8.5C0.44873 3.07 2.76873 0.75 8.19873 0.75H14.1987C19.6287 0.75 21.9487 3.07 21.9487 8.5V14.5C21.9487 19.93 19.6287 22.25 14.1987 22.25ZM8.19873 2.25C3.58873 2.25 1.94873 3.89 1.94873 8.5V14.5C1.94873 19.11 3.58873 20.75 8.19873 20.75H14.1987C18.8087 20.75 20.4487 19.11 20.4487 14.5V8.5C20.4487 3.89 18.8087 2.25 14.1987 2.25H8.19873Z" fill="#4485FD"/>
<path d="M14.9487 9.25H7.44873C7.03873 9.25 6.69873 8.91 6.69873 8.5C6.69873 8.09 7.03873 7.75 7.44873 7.75H14.9487C15.3587 7.75 15.6987 8.09 15.6987 8.5C15.6987 8.91 15.3587 9.25 14.9487 9.25ZM14.9487 15.25H7.44873C7.03873 15.25 6.69873 14.91 6.69873 14.5C6.69873 14.09 7.03873 13.75 7.44873 13.75H14.9487C15.3587 13.75 15.6987 14.09 15.6987 14.5C15.6987 14.91 15.3587 15.25 14.9487 15.25Z" fill="#4485FD"/>
</svg>
