<svg width="22" height="23" viewBox="0 0 22 23" fill="none" xmlns="http://www.w3.org/2000/svg">
<path d="M16.79 22.25H5.21C2.47 22.25 0.25 20.02 0.25 17.28V9.86997C0.25 8.50997 1.09 6.79997 2.17 5.95997L7.56 1.75997C9.18 0.499974 11.77 0.439974 13.45 1.61997L19.63 5.94997C20.82 6.77997 21.75 8.55997 21.75 10.01V17.29C21.75 20.02 19.53 22.25 16.79 22.25ZM8.48 2.93997L3.09 7.13997C2.38 7.69997 1.75 8.96997 1.75 9.86997V17.28C1.75 18.1985 2.11421 19.0796 2.7628 19.7301C3.41139 20.3806 4.29143 20.7473 5.21 20.75H16.79C18.7 20.75 20.25 19.2 20.25 17.29V10.01C20.25 9.04997 19.56 7.71997 18.77 7.17997L12.59 2.84997C11.45 2.04997 9.57 2.08997 8.48 2.93997Z" fill="#4485FD"/>
<path d="M11 18.25C10.59 18.25 10.25 17.91 10.25 17.5V14.5C10.25 14.09 10.59 13.75 11 13.75C11.41 13.75 11.75 14.09 11.75 14.5V17.5C11.75 17.91 11.41 18.25 11 18.25Z" fill="#4485FD"/>
</svg>
