<svg width="21" height="21" viewBox="0 0 21 21" fill="none" xmlns="http://www.w3.org/2000/svg">
<path d="M20.9604 10.5C20.9604 4.99 16.4704 0.5 10.9604 0.5C5.45045 0.5 0.960449 4.99 0.960449 10.5C0.960449 13.4 2.21045 16.01 4.19045 17.84C4.19045 17.85 4.19045 17.85 4.18045 17.86C4.28045 17.96 4.40045 18.04 4.50045 18.13C4.56045 18.18 4.61045 18.23 4.67045 18.27C4.85045 18.42 5.05045 18.56 5.24045 18.7L5.44045 18.84C5.63045 18.97 5.83045 19.09 6.04045 19.2C6.11045 19.24 6.19045 19.29 6.26045 19.33C6.46045 19.44 6.67045 19.54 6.89045 19.63C6.97045 19.67 7.05045 19.71 7.13045 19.74C7.35045 19.83 7.57045 19.91 7.79045 19.98C7.87045 20.01 7.95045 20.04 8.03045 20.06C8.27045 20.13 8.51045 20.19 8.75045 20.25C8.82045 20.27 8.89045 20.29 8.97045 20.3C9.25045 20.36 9.53045 20.4 9.82045 20.43C9.86045 20.43 9.90045 20.44 9.94045 20.45C10.2804 20.48 10.6204 20.5 10.9604 20.5C11.3004 20.5 11.6404 20.48 11.9704 20.45C12.0104 20.45 12.0504 20.44 12.0904 20.43C12.3804 20.4 12.6604 20.36 12.9404 20.3C13.0104 20.29 13.0804 20.26 13.1604 20.25C13.4004 20.19 13.6504 20.14 13.8804 20.06C13.9604 20.03 14.0404 20 14.1204 19.98C14.3404 19.9 14.5704 19.83 14.7804 19.74C14.8604 19.71 14.9404 19.67 15.0204 19.63C15.2304 19.54 15.4404 19.44 15.6504 19.33C15.7304 19.29 15.8004 19.24 15.8704 19.2C16.0704 19.08 16.2704 18.97 16.4704 18.84C16.5404 18.8 16.6004 18.75 16.6704 18.7C16.8704 18.56 17.0604 18.42 17.2404 18.27C17.3004 18.22 17.3505 18.17 17.4104 18.13C17.5205 18.04 17.6304 17.95 17.7304 17.86C17.7304 17.85 17.7304 17.85 17.7204 17.84C19.7104 16.01 20.9604 13.4 20.9604 10.5ZM15.9004 15.47C13.1904 13.65 8.75045 13.65 6.02045 15.47C5.58045 15.76 5.22045 16.1 4.92045 16.47C3.34526 14.8823 2.46109 12.7365 2.46045 10.5C2.46045 5.81 6.27045 2 10.9604 2C15.6504 2 19.4604 5.81 19.4604 10.5C19.4604 12.82 18.5205 14.93 17.0005 16.47C16.7105 16.1 16.3404 15.76 15.9004 15.47Z" fill="#4485FD"/>
<path d="M10.9604 5.43018C8.89045 5.43018 7.21045 7.11018 7.21045 9.18018C7.21045 11.2102 8.80045 12.8602 10.9104 12.9202H11.0904C12.0612 12.8883 12.9815 12.4803 13.6569 11.7824C14.3324 11.0845 14.7102 10.1514 14.7104 9.18018C14.7104 7.11018 13.0304 5.43018 10.9604 5.43018Z" fill="#4485FD"/>
</svg>
